<svg width="17" height="26" viewBox="0 0 17 26" fill="none" xmlns="http://www.w3.org/2000/svg">
<path d="M8.47507 0C10.8182 0 12.9619 0.908088 14.5073 2.38971C16.0029 3.87132 17 5.87868 17 8.125C17 8.9375 16.8504 9.75 16.6012 10.4669C16.4018 11.2316 16.0528 11.9485 15.6041 12.5699L9.17302 23.2279C8.92376 23.5625 8.47507 23.7059 8.07624 23.5147C7.97654 23.4191 7.87683 23.3235 7.82698 23.2279L1.3959 12.5699C0.947215 11.9485 0.598243 11.2316 0.348976 10.4669C0.099709 9.75 0 8.9375 0 8.125C0 5.87868 0.947214 3.87132 2.49267 2.38971C4.03812 0.908088 6.13196 0 8.47507 0V0ZM11.6657 21.125C11.217 21.0294 10.9677 20.6471 11.0674 20.2647C11.1173 19.8346 11.566 19.5956 11.9648 19.6912C13.2111 19.9301 14.2581 20.2647 14.956 20.6949C15.8534 21.2684 16.3519 21.9375 16.3519 22.6544C16.3519 23.7059 15.3548 24.614 13.7595 25.1875C12.4135 25.6654 10.5191 26 8.47507 26C6.43108 26 4.58651 25.6654 3.19062 25.1875C1.59531 24.614 0.648095 23.7059 0.648095 22.6544C0.648095 21.9375 1.14663 21.2684 1.99413 20.6949C2.74194 20.2647 3.78886 19.9301 5.03519 19.6434C5.43402 19.5956 5.83285 19.8346 5.93255 20.2647C6.03226 20.6471 5.73314 21.0294 5.33431 21.125C4.28739 21.3162 3.39003 21.6029 2.84164 21.9853C2.44282 22.2243 2.19355 22.4632 2.19355 22.6544C2.19355 23.0368 2.79179 23.4191 3.739 23.8015C4.93548 24.2316 6.6305 24.4706 8.47507 24.4706C10.3695 24.4706 12.0147 24.2316 13.2111 23.8015C14.2082 23.4191 14.8064 23.0368 14.8064 22.6544C14.8064 22.4632 14.5572 22.2243 14.1584 21.9853C13.5601 21.6029 12.7126 21.3162 11.6657 21.125ZM8.47507 4.63603C9.52199 4.63603 10.4194 5.01838 11.0674 5.63971C11.7155 6.30882 12.1642 7.16912 12.1642 8.125C12.1642 9.12868 11.7155 9.98897 11.0674 10.6103C10.4194 11.2316 9.52199 11.6618 8.47507 11.6618C7.478 11.6618 6.58065 11.2316 5.8827 10.6103C5.2346 9.98897 4.83577 9.12868 4.83577 8.125C4.83577 7.16912 5.2346 6.30882 5.8827 5.63971C6.58065 5.01838 7.478 4.63603 8.47507 4.63603ZM9.97067 6.73897C9.57185 6.35662 9.07331 6.11765 8.47507 6.11765C7.92668 6.11765 7.3783 6.35662 7.02933 6.73897C6.6305 7.07353 6.38123 7.59926 6.38123 8.125C6.38123 8.69853 6.6305 9.17647 7.02933 9.55882C7.3783 9.94118 7.92668 10.1324 8.47507 10.1324C9.07331 10.1324 9.57185 9.94118 9.97067 9.55882C10.3695 9.17647 10.5689 8.69853 10.5689 8.125C10.5689 7.59926 10.3695 7.07353 9.97067 6.73897ZM13.4106 3.44118C12.1144 2.24632 10.4194 1.48162 8.47507 1.48162C6.58064 1.48162 4.83578 2.24632 3.58944 3.44118C2.34311 4.63603 1.54546 6.30882 1.54546 8.125C1.54546 8.79412 1.64516 9.46323 1.84458 10.0368C2.04399 10.6581 2.34311 11.2316 2.69208 11.7574V11.8051L8.47507 21.364L14.2581 11.8529C14.2581 11.8051 14.2581 11.8051 14.3079 11.7574C14.6569 11.2316 14.956 10.6581 15.1554 10.0368C15.305 9.46323 15.4047 8.79412 15.4047 8.125C15.4047 6.30882 14.6569 4.63603 13.4106 3.44118Z" fill="#FF3100"/>
</svg>
