<svg width="24" height="25" viewBox="0 0 24 25" fill="none" xmlns="http://www.w3.org/2000/svg">
<path fill-rule="evenodd" clip-rule="evenodd" d="M7.89668 23.622C8.98517 23.622 9.86758 22.7396 9.86758 21.6511C9.86758 20.5626 8.98517 19.6802 7.89668 19.6802C6.80818 19.6802 5.92578 20.5626 5.92578 21.6511C5.92578 22.7396 6.80818 23.622 7.89668 23.622Z" stroke="#283346" stroke-width="2" stroke-linecap="round" stroke-linejoin="round"/>
<path fill-rule="evenodd" clip-rule="evenodd" d="M19.7248 23.622C20.8133 23.622 21.6957 22.7396 21.6957 21.6511C21.6957 20.5626 20.8133 19.6802 19.7248 19.6802C18.6363 19.6802 17.7539 20.5626 17.7539 21.6511C17.7539 22.7396 18.6363 23.622 19.7248 23.622Z" stroke="#283346" stroke-width="2" stroke-linecap="round" stroke-linejoin="round"/>
<path d="M5.60205 6.86914H22.6799L21.0243 15.1371C20.8383 16.0735 20.0079 16.7419 19.0534 16.7236H8.63723C7.64141 16.7321 6.79575 15.9963 6.66633 15.0089L5.16845 3.65657C5.03997 2.67664 4.20558 1.94339 3.21726 1.94189H1" stroke="#283346" stroke-width="2" stroke-linecap="round" stroke-linejoin="round"/>
</svg>
