<svg width="124" height="58" viewBox="0 0 124 58" fill="none" xmlns="http://www.w3.org/2000/svg">
<path d="M42.3271 18.5618C41.2335 18.5618 40.3495 18.2611 39.6797 17.6599L40.5728 16.3753C41.0877 16.8673 41.6983 17.1132 42.4091 17.1132C42.8329 17.1132 43.0425 17.0085 43.0425 16.8035C43.0425 16.7078 42.9331 16.635 42.7144 16.5803C42.4957 16.5302 42.2314 16.4755 41.9215 16.4209C41.6071 16.3617 41.2973 16.2797 40.9874 16.1703C40.6776 16.0656 40.4133 15.8743 40.1946 15.601C39.9759 15.3277 39.8665 14.9815 39.8665 14.567C39.8665 14.0477 40.0761 13.6058 40.4953 13.2369C40.91 12.8634 41.4932 12.6812 42.2314 12.6812C43.1928 12.6812 43.9993 12.9453 44.6509 13.4737L43.7259 14.6945C43.2293 14.321 42.6734 14.1297 42.0537 14.1297C41.7621 14.1297 41.6162 14.2162 41.6162 14.3893C41.6162 14.4667 41.6937 14.5351 41.8532 14.5943C42.0081 14.6489 42.204 14.6945 42.4364 14.7264C42.6688 14.7583 42.924 14.8129 43.2019 14.8949C43.4753 14.9769 43.7305 15.0771 43.9674 15.191C44.1998 15.3049 44.3958 15.4825 44.5507 15.7239C44.7056 15.9654 44.7831 16.2523 44.7831 16.5803C44.7831 17.2089 44.5689 17.6963 44.1315 18.0425C43.6941 18.3887 43.0926 18.5618 42.3271 18.5618Z" fill="#283346"/>
<path d="M50.3704 18.4616H46.0508V12.7632H50.3704V14.2664H47.7777V14.8312H50.3112V16.3344H47.7777V16.9584H50.3704V18.4616Z" fill="#283346"/>
<path d="M56.9387 18.4616H54.9748L54.1865 16.6669H53.5668V18.4616H51.8398V12.7632H54.8791C55.5216 12.7632 56.0274 12.9499 56.3873 13.3235C56.7473 13.697 56.9296 14.1616 56.9296 14.7219C56.9296 15.1637 56.8293 15.5281 56.6288 15.8151C56.4238 16.0975 56.1823 16.307 55.9043 16.4437L56.9387 18.4616ZM54.6148 15.1637C54.7743 15.1637 54.9064 15.1273 55.0158 15.0498C55.1252 14.9724 55.1798 14.8585 55.1798 14.7128C55.1798 14.5715 55.1252 14.4622 55.0158 14.3848C54.9064 14.3074 54.7743 14.2664 54.6148 14.2664H53.5668V15.1637H54.6148Z" fill="#283346"/>
<path d="M61.9023 18.4616H59.7334L57.6328 12.7632H59.5876L60.8179 16.5986L62.0482 12.7632H64.0029L61.9023 18.4616Z" fill="#283346"/>
<path d="M66.7387 18.4616H65.0117V12.7632H66.7387V18.4616Z" fill="#283346"/>
<path d="M71.1896 18.5616C70.2874 18.5616 69.5401 18.2883 68.9478 17.7371C68.3509 17.1905 68.0547 16.4845 68.0547 15.619C68.0547 14.7444 68.3509 14.0384 68.9432 13.4918C69.5356 12.9452 70.2829 12.6719 71.1896 12.6719C71.8731 12.6719 72.4199 12.8313 72.8391 13.1502C73.2583 13.469 73.5727 13.8608 73.7778 14.3299L72.2878 15.0177C72.2149 14.79 72.0782 14.5987 71.8731 14.4347C71.6681 14.2707 71.4402 14.1933 71.1896 14.1933C70.7795 14.1933 70.4469 14.3299 70.1872 14.6032C69.932 14.8765 69.8044 15.2136 69.8044 15.619C69.8044 16.0199 69.932 16.3615 70.1872 16.6348C70.4469 16.9081 70.7795 17.0448 71.1896 17.0448C71.4402 17.0448 71.6681 16.9628 71.8731 16.7988C72.0782 16.6393 72.2149 16.4435 72.2878 16.2157L73.7778 16.899C73.6866 17.1085 73.5727 17.3044 73.436 17.482C73.2993 17.6642 73.1262 17.8373 72.9211 18.0104C72.7161 18.179 72.4655 18.3156 72.1647 18.4158C71.8686 18.5115 71.5405 18.5616 71.1896 18.5616Z" fill="#283346"/>
<path d="M79.3359 18.4616H75.0117V12.7632H79.3359V14.2664H76.7387V14.8312H79.2767V16.3344H76.7387V16.9584H79.3359V18.4616Z" fill="#283346"/>
<path d="M89.8299 18.4615H87.9343L87.6701 18.1882C87.2281 18.4388 86.7587 18.5618 86.2484 18.5618C85.6697 18.5618 85.1913 18.416 84.8176 18.1199C84.4485 17.8238 84.2617 17.4002 84.2617 16.849C84.2617 16.1658 84.6581 15.6328 85.4555 15.2502C85.2459 14.8311 85.1411 14.444 85.1411 14.0887C85.1411 13.6924 85.3097 13.3553 85.6469 13.0866C85.9887 12.8132 86.4215 12.6812 86.9592 12.6812C87.4194 12.6812 87.8204 12.7996 88.153 13.0364C88.4902 13.2688 88.6588 13.5831 88.6588 13.9702C88.6588 14.362 88.5404 14.6717 88.3034 14.8904C88.0665 15.1136 87.7384 15.314 87.3101 15.4962C87.4286 15.6693 87.5379 15.8059 87.6336 15.9153L87.9434 16.307C88.1303 16.0109 88.267 15.7103 88.3581 15.4051L89.5474 15.9654C89.3013 16.4755 89.0325 16.9037 88.7363 17.259C89.0142 17.5688 89.3788 17.9696 89.8299 18.4615ZM86.4808 17.3865C86.6175 17.3865 86.7496 17.3547 86.8818 17.3C86.7041 17.095 86.5628 16.9219 86.4534 16.7807C86.3167 16.6076 86.18 16.4209 86.0388 16.2159C85.9249 16.3571 85.8656 16.5165 85.8656 16.6942C85.8656 16.8946 85.9249 17.0586 86.0434 17.1907C86.1664 17.3182 86.3076 17.3865 86.4808 17.3865ZM86.6448 14.1297C86.6448 14.2891 86.6949 14.4804 86.8043 14.6945C87.1825 14.5123 87.3693 14.3028 87.3693 14.0613C87.3693 13.9702 87.3374 13.8974 87.2736 13.8381C87.2144 13.7789 87.1324 13.747 87.0367 13.747C86.9228 13.747 86.8271 13.7835 86.7542 13.8564C86.6813 13.9247 86.6448 14.0158 86.6448 14.1297Z" fill="#283346"/>
<path d="M96.4262 18.4616H94.6992V12.7632H97.743C98.3855 12.7632 98.8867 12.9499 99.2467 13.3235C99.6112 13.697 99.7889 14.1616 99.7889 14.7219C99.7889 15.273 99.6112 15.7376 99.2467 16.1066C98.8867 16.4801 98.3855 16.6669 97.743 16.6669H96.4262V18.4616ZM97.5197 15.1637C97.6747 15.1637 97.7977 15.1273 97.8934 15.0498C97.9936 14.9724 98.0392 14.8631 98.0392 14.7219C98.0392 14.5715 97.9936 14.4622 97.8934 14.3848C97.7977 14.3074 97.6747 14.2664 97.5197 14.2664H96.4262V15.1637H97.5197Z" fill="#283346"/>
<path d="M106.214 18.4616H104.259L104.054 17.7965H102.004L101.799 18.4616H99.8438L101.944 12.7632H104.113L106.214 18.4616ZM103.594 16.2934L103.029 14.4577L102.464 16.2934H103.594Z" fill="#283346"/>
<path d="M112.321 18.4616H110.358L109.574 16.6669H108.95V18.4616H107.223V12.7632H110.266C110.909 12.7632 111.41 12.9499 111.77 13.3235C112.135 13.697 112.317 14.1616 112.317 14.7219C112.317 15.1637 112.212 15.5281 112.012 15.8151C111.811 16.0975 111.57 16.307 111.292 16.4437L112.321 18.4616ZM110.002 15.1637C110.157 15.1637 110.294 15.1273 110.403 15.0498C110.508 14.9724 110.563 14.8585 110.563 14.7128C110.563 14.5715 110.508 14.4622 110.403 14.3848C110.294 14.3074 110.157 14.2664 110.002 14.2664H108.95V15.1637H110.002Z" fill="#283346"/>
<path d="M116.578 18.4616H114.851V14.2664H113.324V12.7632H118.1V14.2664H116.578V18.4616Z" fill="#283346"/>
<path d="M121.538 18.5618C120.444 18.5618 119.56 18.2611 118.891 17.6599L119.788 16.3753C120.299 16.8673 120.909 17.1132 121.625 17.1132C122.044 17.1132 122.253 17.0085 122.253 16.8035C122.253 16.7078 122.144 16.635 121.925 16.5803C121.707 16.5302 121.442 16.4755 121.132 16.4209C120.823 16.3617 120.513 16.2797 120.203 16.1703C119.889 16.0656 119.624 15.8743 119.406 15.601C119.187 15.3277 119.077 14.9815 119.077 14.567C119.077 14.0477 119.287 13.6058 119.706 13.2369C120.125 12.8634 120.704 12.6812 121.442 12.6812C122.408 12.6812 123.21 12.9453 123.862 13.4737L122.937 14.6945C122.445 14.321 121.884 14.1297 121.265 14.1297C120.973 14.1297 120.827 14.2162 120.827 14.3893C120.827 14.4667 120.909 14.5351 121.064 14.5943C121.219 14.6489 121.415 14.6945 121.647 14.7264C121.884 14.7583 122.139 14.8129 122.413 14.8949C122.691 14.9769 122.946 15.0771 123.178 15.191C123.411 15.3049 123.607 15.4825 123.762 15.7239C123.921 15.9654 123.999 16.2523 123.999 16.5803C123.999 17.2089 123.78 17.6963 123.342 18.0425C122.91 18.3887 122.308 18.5618 121.538 18.5618Z" fill="#283346"/>
<path d="M29.5552 38.2076H24.1875V20.4883H37.634V25.1618H29.5552V26.9155H37.4472V31.5936H29.5552V38.2076ZM55.7875 38.2076H49.6725L47.2302 32.6276H45.2891V38.2076H39.9214V20.4883H49.3809C51.3858 20.4883 52.9487 21.0668 54.0742 22.2283C55.1997 23.3853 55.7602 24.8338 55.7602 26.5693C55.7602 27.9541 55.4458 29.0883 54.8169 29.972C54.1881 30.8602 53.4409 31.5116 52.5705 31.9398L55.7875 38.2076ZM48.5607 27.9541C49.0528 27.9541 49.4721 27.8356 49.8092 27.5942C50.1464 27.3574 50.315 27.0066 50.315 26.5466C50.315 26.1002 50.1464 25.7631 49.8092 25.5217C49.4721 25.2848 49.0528 25.1618 48.5607 25.1618H45.2891V27.9541H48.5607ZM71.3893 38.2076H57.9428V20.4883H71.3893V25.1618H63.3104V26.9155H71.2025V31.5936H63.3104V33.534H71.3893V38.2076ZM82.5803 38.5264C79.8144 38.5264 77.4997 37.6928 75.6269 36.0166C73.7587 34.3449 72.8246 32.1265 72.8246 29.3616C72.8246 26.5967 73.7587 24.3783 75.6269 22.7066C77.4997 21.0304 79.8144 20.1968 82.5803 20.1968C84.5305 20.1968 86.1527 20.6386 87.4558 21.5223C88.759 22.4105 89.7296 23.5083 90.3675 24.8156L85.8474 27.1296C85.5649 26.5283 85.1365 26.0091 84.5578 25.5763C83.9837 25.139 83.323 24.925 82.5803 24.925C81.3044 24.925 80.2655 25.3486 79.4681 26.2004C78.6707 27.0476 78.2743 28.1044 78.2743 29.3616C78.2743 30.6188 78.6707 31.671 79.4681 32.5228C80.2655 33.3746 81.3044 33.7982 82.5803 33.7982C83.077 33.7982 83.5873 33.7208 84.1204 33.5614C84.6535 33.402 85.0591 33.2152 85.3416 33.0011V32.3634H82.0472V27.6853H90.6865V34.9416C88.5221 37.333 85.82 38.5264 82.5803 38.5264ZM110.726 38.2076H104.639L104.001 36.135H97.6216L96.9837 38.2076H90.9006L97.4348 20.4883H104.188L110.726 38.2076ZM102.566 31.4615L100.811 25.7494L99.0569 31.4615H102.566ZM119.256 38.2076H113.889V25.1618H109.132V20.4883H123.991V25.1618H119.256V38.2076Z" fill="#283346"/>
<path fill-rule="evenodd" clip-rule="evenodd" d="M33.0456 1.15641C31.9338 2.3544 32.0158 3.63893 31.2868 4.9098C30.1841 4.73215 29.5325 4.81869 28.7032 4.75492C27.5094 4.66838 25.4726 4.90069 24.3471 5.16488C23.855 4.62738 23.4768 3.23353 23.0803 2.52749C22.2556 1.06986 20.5332 0.341052 19.0204 0.650798C18.5511 0.746454 18.3278 0.864887 17.8767 1.07442C16.8469 1.5527 14.1995 2.52749 13.4796 3.30185C12.5136 4.34497 12.0944 5.60672 12.3541 6.76827C12.4999 7.43331 12.6731 7.68384 12.9465 8.32611C13.1242 8.74973 13.4249 9.60153 13.7256 9.92949C13.3247 10.3577 12.9693 10.5626 12.6002 10.9179C11.6205 11.8791 10.5816 12.945 9.7204 14.0245C9.43789 14.3798 9.2055 14.7898 8.8592 15.1633C8.24862 14.8125 6.27105 14.1566 5.66047 14.0564C4.55322 13.8787 3.21813 14.3479 2.28403 15.3546C1.58687 16.1016 0.780355 18.6707 0.393044 19.7912C0.0604128 20.7615 -0.0489456 20.9756 0.0194034 21.964C0.0877524 22.9115 0.639101 23.7815 1.40461 24.4921C1.91495 24.9658 4.093 25.7857 4.88129 25.9953L4.76282 27.7399C4.76282 29.4936 4.73548 31.3201 5.14102 33.042C4.22514 33.4018 2.27948 34.2627 1.68256 34.9095C-0.504605 37.2554 1.06286 39.3052 2.08354 41.6829C2.23391 42.0428 2.4025 42.3981 2.56654 42.7716C3.02676 43.8102 4.17958 44.7212 5.25949 44.9444C6.43965 45.1858 7.32363 44.785 8.39443 44.3294C8.67238 44.211 8.93666 44.0971 9.17361 43.9878C9.41511 43.8785 9.74318 43.7418 9.94823 43.6052C10.4495 44.0698 11.0464 44.9307 11.7618 45.5912L14.0446 47.6137C14.3955 47.9097 14.8056 48.1147 15.1291 48.4154C14.8511 49.4494 14.2314 50.5061 14.0492 51.5629C13.9034 52.4147 14.1357 53.8906 14.9878 54.6831C15.9584 55.585 16.4368 55.6807 17.6215 56.1271C18.6422 56.5143 19.8452 57.0654 20.8749 57.2795C21.9184 57.4936 23.2945 57.2203 24.1101 56.3503C25.1764 55.1979 25.2037 54.6239 25.7186 53.2893C25.828 53.0023 25.9373 52.729 26.0193 52.4329C26.5844 52.5878 27.1722 52.5377 27.7645 52.5878C28.9629 52.6926 32.0295 52.5331 33.0684 52.1733C33.319 52.9021 34.3215 55.0658 34.768 55.4803C35.652 56.3002 36.2671 56.6828 37.4473 56.7648C38.1672 56.8149 38.8917 56.5598 39.5342 56.2501L42.6418 54.8289C43.9268 54.2504 44.8837 53.0752 45.034 51.6768C45.1434 50.6565 44.7652 49.7819 44.3278 48.8617C44.0407 48.2514 43.3435 46.3792 43.0063 46.0649L42.6828 45.7643C41.7669 44.9125 40.0947 46.0877 40.6005 47.4178C40.9194 48.2514 42.2408 50.6519 42.2682 51.2031C42.332 52.2735 40.6688 52.6242 39.475 53.1936C36.8367 54.4508 37.1374 54.2595 35.9072 51.6495C35.4014 50.5699 35.0004 48.88 33.5377 49.217L30.8676 49.6817C29.8104 49.8548 27.9012 49.8229 26.8168 49.7044C24.9075 49.504 24.2651 49.0576 23.5952 50.9981C23.3993 51.5629 22.5654 53.9634 22.3467 54.2003C21.6769 54.92 20.4375 54.1548 19.5945 53.8541L17.5122 53.0934C16.5781 52.7336 16.7877 51.9774 17.0975 51.1848L18.1319 48.3561C18.6058 46.8211 17.0611 46.3838 16.0814 45.6322C14.7053 44.5754 13.9079 43.8284 12.7505 42.553C12.4817 42.2523 12.2675 41.9836 12.0397 41.6829C11.4656 40.9405 10.9006 40.1388 9.83887 40.5988C9.56092 40.7173 9.38777 40.8175 9.11437 40.9359C8.82731 41.0543 8.60859 41.15 8.33975 41.2775C7.90232 41.4871 6.62191 42.184 6.1617 42.2387C5.9931 42.2614 5.50555 42.1202 5.35974 41.9836C5.20025 41.8333 4.34817 39.87 4.17502 39.5011C3.9563 39.0456 3.81961 38.7085 3.60089 38.2575C2.87639 36.7589 4.3664 36.481 5.71971 35.8707C6.08423 35.7067 6.36219 35.5837 6.70393 35.4243C9.21462 34.2399 7.72461 33.8755 7.56513 29.4252C7.52868 28.5279 7.55602 27.6169 7.64715 26.7377C7.95244 23.8954 8.00712 24.114 5.04077 23.0937C4.40741 22.875 3.12245 22.5744 2.87183 21.9139C2.71235 21.4994 2.91284 21.1578 3.0541 20.7478C3.19535 20.3515 3.34116 20.0008 3.50064 19.5726C4.0201 18.1514 4.24337 16.3658 5.65591 16.9033C6.07512 17.0627 6.37586 17.1675 6.77684 17.3224C7.17782 17.4773 7.53323 17.6002 7.89776 17.7415C8.59948 18.0102 9.42422 18.4657 10.1761 18.074C10.6864 17.8052 11.8438 15.7737 12.7961 14.7533C13.7074 13.7694 14.8192 12.6899 15.7989 11.9246C16.2181 11.6012 16.4961 11.4919 16.7284 11.0318C17.1841 10.1117 16.2682 8.8636 15.7442 7.64284C15.5847 7.27388 15.4116 6.9277 15.243 6.55418C14.6461 5.23321 16.4049 4.85058 17.8311 4.18098C20.3828 2.97844 20.3418 2.99211 21.4855 5.69327C23.1396 9.59242 22.9938 7.76128 27.1722 7.61551L29.0677 7.54263C29.2864 7.54263 29.332 7.57452 29.5416 7.57907C29.7466 7.58363 29.815 7.56996 30.0155 7.58818C30.6352 7.64284 31.2458 7.6975 31.8655 7.78405C33.2871 7.97992 33.4466 7.20556 33.8886 6.0759C34.0253 5.72516 34.1164 5.4473 34.244 5.11477C35.4971 1.91711 34.9594 2.54116 38.8872 3.87579C41.4206 4.73215 40.5321 5.34253 39.8031 7.43787C39.2927 8.90916 38.6047 9.56964 39.7666 10.6492C40.2132 11.0637 41.0971 10.9635 41.4981 10.5308C41.9082 10.0935 42.9744 6.9778 43.1567 6.41753C43.5668 5.17399 43.3937 3.55238 42.1497 2.39995C41.2429 1.56181 38.7641 0.864886 37.5475 0.391158C35.971 -0.223777 34.326 -0.214667 33.0456 1.15641Z" fill="#FF3100"/>
<path d="M34.7858 39.4327C35.4511 39.0638 36.2895 39.3006 36.6632 39.9611C37.0322 40.6262 36.7953 41.4643 36.1346 41.8378C35.0091 42.471 33.8016 42.9584 32.544 43.2863C31.2909 43.6143 30.0014 43.7828 28.7164 43.7828C24.5426 43.7828 20.7606 42.0929 18.0267 39.3599C15.2927 36.6268 13.5977 32.8461 13.5977 28.6736C13.5977 24.5012 15.2927 20.725 18.0267 17.9874C20.7606 15.2544 24.5426 13.5645 28.7164 13.5645C30.047 13.5645 31.3684 13.7421 32.6488 14.0883C33.9246 14.4299 35.1595 14.9446 36.3123 15.6142C36.973 15.9969 37.1963 16.8396 36.8135 17.4955C36.4353 18.156 35.5924 18.3792 34.9316 17.9965C33.993 17.4499 32.9814 17.0309 31.938 16.7485C30.8945 16.466 29.81 16.3248 28.7164 16.3248C25.3036 16.3248 22.2142 17.705 19.9769 19.9416C17.7442 22.1736 16.359 25.2619 16.359 28.6736C16.359 32.0854 17.7442 35.1737 19.9769 37.4103C22.2142 39.6423 25.3036 41.027 28.7164 41.027C29.7872 41.027 30.8444 40.8904 31.8559 40.6262C32.8675 40.3574 33.8517 39.9611 34.7858 39.4327Z" fill="#FF3100"/>
</svg>
