<svg width="26" height="25" viewBox="0 0 26 25" fill="none" xmlns="http://www.w3.org/2000/svg">
<path fill-rule="evenodd" clip-rule="evenodd" d="M7.29681 1.1273C4.14492 1.52399 1.45806 3.68099 1.09637 6.65616C0.915522 8.26771 1.0447 10.6231 1.0447 12.309C1.0447 14.1437 0.941352 16.3007 1.07053 18.0858C1.30304 21.0857 3.98991 23.4163 6.98679 23.8378C8.61441 24.0609 11.0946 23.9617 12.7997 23.9617C14.5823 23.9617 17.0883 24.0857 18.7676 23.8874C21.8679 23.5155 24.4772 21.2345 24.8647 18.3089C25.0714 16.7469 24.9164 14.3172 24.9164 12.6809C24.9164 8.59002 25.614 5.66444 22.9788 3.08595C20.2919 0.482679 16.985 1.05292 13.1614 1.05292C11.4304 1.05292 8.95026 0.928955 7.29681 1.1273ZM7.81351 2.78844C4.99748 2.98678 2.85316 4.82147 2.85316 7.79664C2.82733 11.0197 2.80149 14.342 2.85316 17.5403C2.879 19.1519 3.60237 20.0692 4.4291 20.8626C5.20416 21.6064 6.54759 22.1766 8.0977 22.2262C9.57031 22.251 17.0367 22.3006 18.1993 22.2014C20.9895 22.0031 23.1855 19.9948 23.1596 17.1932C23.108 13.9453 23.2113 10.6726 23.1338 7.42475C23.1338 6.70575 22.9788 6.08592 22.6687 5.49088C21.8162 3.87933 20.0336 2.81323 17.8634 2.76364C16.1841 2.73885 9.15694 2.68926 7.81351 2.78844ZM11.8955 6.8793C9.20862 7.39995 6.75427 9.90406 7.52933 13.2015C8.14937 15.7552 10.7587 17.9122 14.169 17.2676C16.83 16.747 19.1552 14.2428 18.4834 11.0197C17.9667 8.44126 15.2282 6.23468 11.8955 6.8793ZM12.2313 8.54043C7.2193 9.60654 8.95026 16.5982 13.8073 15.5817C15.5899 15.2098 17.2434 13.5238 16.7525 11.3668C16.365 9.63133 14.5823 8.06937 12.2313 8.54043ZM19.0002 5.19337C17.3984 5.63964 18.0443 7.82143 19.5685 7.44954C21.0153 7.10244 20.4986 4.77188 19.0002 5.19337Z" fill="#FF3100" stroke="#FF3100" stroke-width="0.5"/>
</svg>
