<svg width="13" height="20" viewBox="0 0 13 20" fill="none" xmlns="http://www.w3.org/2000/svg">
<path d="M6.48094 0C8.27273 0 9.91202 0.698529 11.0938 1.83824C12.2375 2.97794 13 4.52206 13 6.25C13 6.875 12.8856 7.5 12.695 8.05147C12.5425 8.63971 12.2757 9.19118 11.9326 9.66912L7.01467 17.8676C6.82405 18.125 6.48094 18.2353 6.17595 18.0882C6.0997 18.0147 6.02346 17.9412 5.98533 17.8676L1.06745 9.66912C0.724341 9.19118 0.45748 8.63971 0.266864 8.05147C0.0762481 7.5 0 6.875 0 6.25C0 4.52206 0.72434 2.97794 1.90616 1.83824C3.08798 0.698529 4.68915 0 6.48094 0V0ZM8.92082 16.25C8.57771 16.1765 8.38709 15.8824 8.46334 15.5882C8.50146 15.2574 8.84457 15.0735 9.14956 15.1471C10.1026 15.3309 10.9032 15.5882 11.4369 15.9191C12.1232 16.3603 12.5044 16.875 12.5044 17.4265C12.5044 18.2353 11.7419 18.9338 10.522 19.375C9.49267 19.7426 8.04399 20 6.48094 20C4.91789 20 3.50733 19.7426 2.43988 19.375C1.21994 18.9338 0.495602 18.2353 0.495602 17.4265C0.495602 16.875 0.876833 16.3603 1.52493 15.9191C2.09677 15.5882 2.89736 15.3309 3.85044 15.1103C4.15543 15.0735 4.46041 15.2574 4.53666 15.5882C4.61291 15.8824 4.38416 16.1765 4.07918 16.25C3.27859 16.3971 2.59238 16.6176 2.17302 16.9118C1.86804 17.0956 1.67742 17.2794 1.67742 17.4265C1.67742 17.7206 2.1349 18.0147 2.85924 18.3088C3.77419 18.6397 5.07038 18.8235 6.48094 18.8235C7.92962 18.8235 9.18768 18.6397 10.1026 18.3088C10.8651 18.0147 11.3226 17.7206 11.3226 17.4265C11.3226 17.2794 11.132 17.0956 10.827 16.9118C10.3695 16.6176 9.72141 16.3971 8.92082 16.25ZM6.48094 3.56618C7.28152 3.56618 7.96774 3.86029 8.46334 4.33824C8.95894 4.85294 9.30205 5.51471 9.30205 6.25C9.30205 7.02206 8.95894 7.68382 8.46334 8.16177C7.96774 8.63971 7.28152 8.97059 6.48094 8.97059C5.71847 8.97059 5.03226 8.63971 4.49853 8.16177C4.00293 7.68382 3.69795 7.02206 3.69795 6.25C3.69795 5.51471 4.00293 4.85294 4.49853 4.33824C5.03226 3.86029 5.71847 3.56618 6.48094 3.56618ZM7.62463 5.18382C7.31965 4.88971 6.93842 4.70588 6.48094 4.70588C6.06158 4.70588 5.64223 4.88971 5.37537 5.18382C5.07038 5.44118 4.87977 5.84559 4.87977 6.25C4.87977 6.69118 5.07038 7.05882 5.37537 7.35294C5.64223 7.64706 6.06158 7.79412 6.48094 7.79412C6.93842 7.79412 7.31965 7.64706 7.62463 7.35294C7.92962 7.05882 8.08211 6.69118 8.08211 6.25C8.08211 5.84559 7.92962 5.44118 7.62463 5.18382ZM10.2551 2.64706C9.26393 1.72794 7.96774 1.13971 6.48094 1.13971C5.03226 1.13971 3.69795 1.72794 2.74487 2.64706C1.79179 3.56618 1.18182 4.85294 1.18182 6.25C1.18182 6.76471 1.25807 7.27941 1.41056 7.72059C1.56305 8.19853 1.79179 8.63971 2.05865 9.04412V9.08088L6.48094 16.4338L10.9032 9.11765C10.9032 9.08088 10.9032 9.08088 10.9413 9.04412C11.2082 8.63971 11.437 8.19853 11.5894 7.72059C11.7038 7.27941 11.7801 6.76471 11.7801 6.25C11.7801 4.85294 11.2082 3.56618 10.2551 2.64706Z" fill="#283346"/>
</svg>
