<svg width="124" height="58" viewBox="0 0 124 58" fill="none" xmlns="http://www.w3.org/2000/svg">
<path d="M42.3271 18.5613C41.2335 18.5613 40.3495 18.2606 39.6797 17.6594L40.5728 16.3748C41.0877 16.8668 41.6983 17.1128 42.4091 17.1128C42.8329 17.1128 43.0425 17.008 43.0425 16.803C43.0425 16.7074 42.9331 16.6345 42.7144 16.5798C42.4957 16.5297 42.2314 16.475 41.9215 16.4204C41.6071 16.3612 41.2973 16.2792 40.9874 16.1699C40.6776 16.0651 40.4133 15.8738 40.1946 15.6005C39.9759 15.3272 39.8665 14.981 39.8665 14.5665C39.8665 14.0472 40.0761 13.6053 40.4953 13.2364C40.91 12.8629 41.4932 12.6807 42.2314 12.6807C43.1928 12.6807 43.9993 12.9449 44.6509 13.4732L43.7259 14.694C43.2293 14.3205 42.6734 14.1292 42.0537 14.1292C41.7621 14.1292 41.6162 14.2157 41.6162 14.3888C41.6162 14.4663 41.6937 14.5346 41.8532 14.5938C42.0081 14.6485 42.204 14.694 42.4364 14.7259C42.6688 14.7578 42.924 14.8124 43.2019 14.8944C43.4753 14.9764 43.7305 15.0766 43.9674 15.1905C44.1998 15.3044 44.3958 15.482 44.5507 15.7235C44.7056 15.9649 44.7831 16.2518 44.7831 16.5798C44.7831 17.2084 44.5689 17.6958 44.1315 18.042C43.6941 18.3882 43.0926 18.5613 42.3271 18.5613Z" fill="white"/>
<path d="M50.3704 18.4611H46.0508V12.7627H50.3704V14.2659H47.7777V14.8307H50.3112V16.3339H47.7777V16.9579H50.3704V18.4611Z" fill="white"/>
<path d="M56.9387 18.4611H54.9748L54.1865 16.6664H53.5668V18.4611H51.8398V12.7627H54.8791C55.5216 12.7627 56.0274 12.9495 56.3873 13.323C56.7473 13.6965 56.9296 14.1611 56.9296 14.7214C56.9296 15.1632 56.8293 15.5276 56.6288 15.8146C56.4238 16.097 56.1823 16.3065 55.9043 16.4432L56.9387 18.4611ZM54.6148 15.1632C54.7743 15.1632 54.9064 15.1268 55.0158 15.0493C55.1252 14.9719 55.1798 14.858 55.1798 14.7123C55.1798 14.5711 55.1252 14.4617 55.0158 14.3843C54.9064 14.3069 54.7743 14.2659 54.6148 14.2659H53.5668V15.1632H54.6148Z" fill="white"/>
<path d="M61.9023 18.4611H59.7334L57.6328 12.7627H59.5876L60.8179 16.5981L62.0482 12.7627H64.0029L61.9023 18.4611Z" fill="white"/>
<path d="M66.7387 18.4611H65.0117V12.7627H66.7387V18.4611Z" fill="white"/>
<path d="M71.1896 18.5613C70.2874 18.5613 69.5401 18.288 68.9478 17.7369C68.3509 17.1903 68.0547 16.4842 68.0547 15.6188C68.0547 14.7442 68.3509 14.0382 68.9432 13.4915C69.5356 12.9449 70.2829 12.6716 71.1896 12.6716C71.8731 12.6716 72.4199 12.8311 72.8391 13.1499C73.2583 13.4688 73.5727 13.8605 73.7778 14.3297L72.2878 15.0175C72.2149 14.7897 72.0782 14.5984 71.8731 14.4344C71.6681 14.2705 71.4402 14.193 71.1896 14.193C70.7795 14.193 70.4469 14.3297 70.1872 14.603C69.932 14.8763 69.8044 15.2134 69.8044 15.6188C69.8044 16.0196 69.932 16.3612 70.1872 16.6345C70.4469 16.9079 70.7795 17.0445 71.1896 17.0445C71.4402 17.0445 71.6681 16.9625 71.8731 16.7985C72.0782 16.6391 72.2149 16.4432 72.2878 16.2155L73.7778 16.8987C73.6866 17.1083 73.5727 17.3041 73.436 17.4818C73.2993 17.664 73.1262 17.8371 72.9211 18.0102C72.7161 18.1787 72.4655 18.3154 72.1647 18.4156C71.8686 18.5112 71.5405 18.5613 71.1896 18.5613Z" fill="white"/>
<path d="M79.3359 18.4611H75.0117V12.7627H79.3359V14.2659H76.7387V14.8307H79.2767V16.3339H76.7387V16.9579H79.3359V18.4611Z" fill="white"/>
<path d="M89.8299 18.4611H87.9343L87.6701 18.1878C87.2281 18.4383 86.7587 18.5613 86.2484 18.5613C85.6697 18.5613 85.1913 18.4155 84.8176 18.1194C84.4485 17.8233 84.2617 17.3997 84.2617 16.8486C84.2617 16.1653 84.6581 15.6324 85.4555 15.2497C85.2459 14.8307 85.1411 14.4435 85.1411 14.0882C85.1411 13.6919 85.3097 13.3548 85.6469 13.0861C85.9887 12.8128 86.4215 12.6807 86.9592 12.6807C87.4194 12.6807 87.8204 12.7991 88.153 13.036C88.4902 13.2683 88.6588 13.5826 88.6588 13.9698C88.6588 14.3615 88.5404 14.6712 88.3034 14.8899C88.0665 15.1131 87.7384 15.3135 87.3101 15.4957C87.4286 15.6688 87.5379 15.8054 87.6336 15.9148L87.9434 16.3065C88.1303 16.0104 88.267 15.7098 88.3581 15.4046L89.5474 15.9649C89.3013 16.475 89.0325 16.9032 88.7363 17.2585C89.0142 17.5683 89.3788 17.9691 89.8299 18.4611ZM86.4808 17.3861C86.6175 17.3861 86.7496 17.3542 86.8818 17.2995C86.7041 17.0945 86.5628 16.9214 86.4534 16.7802C86.3167 16.6071 86.18 16.4204 86.0388 16.2154C85.9249 16.3566 85.8656 16.516 85.8656 16.6937C85.8656 16.8941 85.9249 17.0581 86.0434 17.1902C86.1664 17.3177 86.3076 17.3861 86.4808 17.3861ZM86.6448 14.1292C86.6448 14.2886 86.6949 14.4799 86.8043 14.694C87.1825 14.5118 87.3693 14.3023 87.3693 14.0609C87.3693 13.9698 87.3374 13.8969 87.2736 13.8377C87.2144 13.7784 87.1324 13.7466 87.0367 13.7466C86.9228 13.7466 86.8271 13.783 86.7542 13.8559C86.6813 13.9242 86.6448 14.0153 86.6448 14.1292Z" fill="white"/>
<path d="M96.4262 18.4611H94.6992V12.7627H97.743C98.3855 12.7627 98.8867 12.9495 99.2467 13.323C99.6112 13.6965 99.7889 14.1611 99.7889 14.7214C99.7889 15.2725 99.6112 15.7372 99.2467 16.1061C98.8867 16.4796 98.3855 16.6664 97.743 16.6664H96.4262V18.4611ZM97.5197 15.1632C97.6747 15.1632 97.7977 15.1268 97.8934 15.0493C97.9936 14.9719 98.0392 14.8626 98.0392 14.7214C98.0392 14.5711 97.9936 14.4617 97.8934 14.3843C97.7977 14.3069 97.6747 14.2659 97.5197 14.2659H96.4262V15.1632H97.5197Z" fill="white"/>
<path d="M106.214 18.4611H104.259L104.054 17.7961H102.004L101.799 18.4611H99.8438L101.944 12.7627H104.113L106.214 18.4611ZM103.594 16.2929L103.029 14.4572L102.464 16.2929H103.594Z" fill="white"/>
<path d="M112.321 18.4611H110.358L109.574 16.6664H108.95V18.4611H107.223V12.7627H110.266C110.909 12.7627 111.41 12.9495 111.77 13.323C112.135 13.6965 112.317 14.1611 112.317 14.7214C112.317 15.1632 112.212 15.5276 112.012 15.8146C111.811 16.097 111.57 16.3065 111.292 16.4432L112.321 18.4611ZM110.002 15.1632C110.157 15.1632 110.294 15.1268 110.403 15.0493C110.508 14.9719 110.563 14.858 110.563 14.7123C110.563 14.5711 110.508 14.4617 110.403 14.3843C110.294 14.3069 110.157 14.2659 110.002 14.2659H108.95V15.1632H110.002Z" fill="white"/>
<path d="M116.578 18.4611H114.851V14.2659H113.324V12.7627H118.1V14.2659H116.578V18.4611Z" fill="white"/>
<path d="M121.538 18.5613C120.444 18.5613 119.56 18.2606 118.891 17.6594L119.788 16.3748C120.299 16.8668 120.909 17.1128 121.625 17.1128C122.044 17.1128 122.253 17.008 122.253 16.803C122.253 16.7074 122.144 16.6345 121.925 16.5798C121.707 16.5297 121.442 16.475 121.132 16.4204C120.823 16.3612 120.513 16.2792 120.203 16.1699C119.889 16.0651 119.624 15.8738 119.406 15.6005C119.187 15.3272 119.077 14.981 119.077 14.5665C119.077 14.0472 119.287 13.6053 119.706 13.2364C120.125 12.8629 120.704 12.6807 121.442 12.6807C122.408 12.6807 123.21 12.9449 123.862 13.4732L122.937 14.694C122.445 14.3205 121.884 14.1292 121.265 14.1292C120.973 14.1292 120.827 14.2157 120.827 14.3888C120.827 14.4663 120.909 14.5346 121.064 14.5938C121.219 14.6485 121.415 14.694 121.647 14.7259C121.884 14.7578 122.139 14.8124 122.413 14.8944C122.691 14.9764 122.946 15.0766 123.178 15.1905C123.411 15.3044 123.607 15.482 123.762 15.7235C123.921 15.9649 123.999 16.2518 123.999 16.5798C123.999 17.2084 123.78 17.6958 123.342 18.042C122.91 18.3882 122.308 18.5613 121.538 18.5613Z" fill="white"/>
<path d="M29.5552 38.2073H24.1875V20.4881H37.634V25.1616H29.5552V26.9153H37.4472V31.5933H29.5552V38.2073ZM55.7875 38.2073H49.6725L47.2302 32.6273H45.2891V38.2073H39.9214V20.4881H49.3809C51.3858 20.4881 52.9487 21.0666 54.0742 22.2281C55.1997 23.3851 55.7602 24.8336 55.7602 26.5691C55.7602 27.9538 55.4458 29.088 54.8169 29.9717C54.1881 30.86 53.4409 31.5114 52.5705 31.9395L55.7875 38.2073ZM48.5607 27.9538C49.0528 27.9538 49.4721 27.8354 49.8092 27.594C50.1464 27.3571 50.315 27.0064 50.315 26.5463C50.315 26.0999 50.1464 25.7628 49.8092 25.5214C49.4721 25.2846 49.0528 25.1616 48.5607 25.1616H45.2891V27.9538H48.5607ZM71.3893 38.2073H57.9428V20.4881H71.3893V25.1616H63.3104V26.9153H71.2025V31.5933H63.3104V33.5338H71.3893V38.2073ZM82.5803 38.5262C79.8144 38.5262 77.4997 37.6926 75.6269 36.0163C73.7587 34.3446 72.8246 32.1263 72.8246 29.3614C72.8246 26.5964 73.7587 24.3781 75.6269 22.7064C77.4997 21.0301 79.8144 20.1965 82.5803 20.1965C84.5305 20.1965 86.1527 20.6384 87.4558 21.5221C88.759 22.4103 89.7296 23.5081 90.3675 24.8154L85.8474 27.1294C85.5649 26.5281 85.1365 26.0088 84.5578 25.5761C83.9837 25.1388 83.323 24.9247 82.5803 24.9247C81.3044 24.9247 80.2655 25.3483 79.4681 26.2001C78.6707 27.0474 78.2743 28.1041 78.2743 29.3614C78.2743 30.6186 78.6707 31.6708 79.4681 32.5226C80.2655 33.3744 81.3044 33.798 82.5803 33.798C83.077 33.798 83.5873 33.7206 84.1204 33.5611C84.6535 33.4017 85.0591 33.2149 85.3416 33.0009V32.3631H82.0472V27.6851H90.6865V34.9413C88.5221 37.3327 85.82 38.5262 82.5803 38.5262ZM110.726 38.2073H104.639L104.001 36.1348H97.6216L96.9837 38.2073H90.9006L97.4348 20.4881H104.188L110.726 38.2073ZM102.566 31.4612L100.811 25.7492L99.0569 31.4612H102.566ZM119.256 38.2073H113.889V25.1616H109.132V20.4881H123.991V25.1616H119.256V38.2073Z" fill="white"/>
<path fill-rule="evenodd" clip-rule="evenodd" d="M33.0456 1.15641C31.9338 2.3544 32.0158 3.63893 31.2868 4.9098C30.1841 4.73215 29.5325 4.81869 28.7032 4.75492C27.5094 4.66838 25.4726 4.90069 24.3471 5.16488C23.855 4.62738 23.4768 3.23353 23.0803 2.52749C22.2556 1.06986 20.5332 0.341052 19.0204 0.650798C18.5511 0.746454 18.3278 0.864887 17.8767 1.07442C16.8469 1.5527 14.1995 2.52749 13.4796 3.30185C12.5136 4.34497 12.0944 5.60672 12.3541 6.76827C12.4999 7.43331 12.6731 7.68384 12.9465 8.32611C13.1242 8.74973 13.4249 9.60153 13.7256 9.92949C13.3247 10.3577 12.9693 10.5626 12.6002 10.9179C11.6205 11.8791 10.5816 12.945 9.7204 14.0245C9.43789 14.3798 9.2055 14.7898 8.8592 15.1633C8.24862 14.8125 6.27105 14.1566 5.66047 14.0564C4.55322 13.8787 3.21813 14.3479 2.28403 15.3546C1.58687 16.1016 0.780355 18.6707 0.393044 19.7912C0.0604128 20.7615 -0.0489456 20.9756 0.0194034 21.964C0.0877524 22.9115 0.639101 23.7815 1.40461 24.4921C1.91495 24.9658 4.093 25.7857 4.88129 25.9953L4.76282 27.7399C4.76282 29.4936 4.73548 31.3201 5.14102 33.042C4.22514 33.4018 2.27948 34.2627 1.68256 34.9095C-0.504605 37.2554 1.06286 39.3052 2.08354 41.6829C2.23391 42.0428 2.4025 42.3981 2.56654 42.7716C3.02676 43.8102 4.17958 44.7212 5.25949 44.9444C6.43965 45.1858 7.32363 44.785 8.39443 44.3294C8.67238 44.211 8.93666 44.0971 9.17361 43.9878C9.41511 43.8785 9.74318 43.7418 9.94823 43.6052C10.4495 44.0698 11.0464 44.9307 11.7618 45.5912L14.0446 47.6137C14.3955 47.9097 14.8056 48.1147 15.1291 48.4154C14.8511 49.4494 14.2314 50.5061 14.0492 51.5629C13.9034 52.4147 14.1357 53.8906 14.9878 54.6831C15.9584 55.585 16.4368 55.6807 17.6215 56.1271C18.6422 56.5143 19.8452 57.0654 20.8749 57.2795C21.9184 57.4936 23.2945 57.2203 24.1101 56.3503C25.1764 55.1979 25.2037 54.6239 25.7186 53.2893C25.828 53.0023 25.9373 52.729 26.0193 52.4329C26.5844 52.5878 27.1722 52.5377 27.7645 52.5878C28.9629 52.6926 32.0295 52.5331 33.0684 52.1733C33.319 52.9021 34.3215 55.0658 34.768 55.4803C35.652 56.3002 36.2671 56.6828 37.4473 56.7648C38.1672 56.8149 38.8917 56.5598 39.5342 56.2501L42.6418 54.8289C43.9268 54.2504 44.8837 53.0752 45.034 51.6768C45.1434 50.6565 44.7652 49.7819 44.3278 48.8617C44.0407 48.2514 43.3435 46.3792 43.0063 46.0649L42.6828 45.7643C41.7669 44.9125 40.0947 46.0877 40.6005 47.4178C40.9194 48.2514 42.2408 50.6519 42.2682 51.2031C42.332 52.2735 40.6688 52.6242 39.475 53.1936C36.8367 54.4508 37.1374 54.2595 35.9072 51.6495C35.4014 50.5699 35.0004 48.88 33.5377 49.217L30.8676 49.6817C29.8104 49.8548 27.9012 49.8229 26.8168 49.7044C24.9075 49.504 24.2651 49.0576 23.5952 50.9981C23.3993 51.5629 22.5654 53.9634 22.3467 54.2003C21.6769 54.92 20.4375 54.1548 19.5945 53.8541L17.5122 53.0934C16.5781 52.7336 16.7877 51.9774 17.0975 51.1848L18.1319 48.3561C18.6058 46.8211 17.0611 46.3838 16.0814 45.6322C14.7053 44.5754 13.9079 43.8284 12.7505 42.553C12.4817 42.2523 12.2675 41.9836 12.0397 41.6829C11.4656 40.9405 10.9006 40.1388 9.83887 40.5988C9.56092 40.7173 9.38777 40.8175 9.11437 40.9359C8.82731 41.0543 8.60859 41.15 8.33975 41.2775C7.90232 41.4871 6.62191 42.184 6.1617 42.2387C5.9931 42.2614 5.50555 42.1202 5.35974 41.9836C5.20025 41.8333 4.34817 39.87 4.17502 39.5011C3.9563 39.0456 3.81961 38.7085 3.60089 38.2575C2.87639 36.7589 4.3664 36.481 5.71971 35.8707C6.08423 35.7067 6.36219 35.5837 6.70393 35.4243C9.21462 34.2399 7.72461 33.8755 7.56513 29.4252C7.52868 28.5279 7.55602 27.6169 7.64715 26.7377C7.95244 23.8954 8.00712 24.114 5.04077 23.0937C4.40741 22.875 3.12245 22.5744 2.87183 21.9139C2.71235 21.4994 2.91284 21.1578 3.0541 20.7478C3.19535 20.3515 3.34116 20.0008 3.50064 19.5726C4.0201 18.1514 4.24337 16.3658 5.65591 16.9033C6.07512 17.0627 6.37586 17.1675 6.77684 17.3224C7.17782 17.4773 7.53323 17.6002 7.89776 17.7415C8.59948 18.0102 9.42422 18.4657 10.1761 18.074C10.6864 17.8052 11.8438 15.7737 12.7961 14.7533C13.7074 13.7694 14.8192 12.6899 15.7989 11.9246C16.2181 11.6012 16.4961 11.4919 16.7284 11.0318C17.1841 10.1117 16.2682 8.8636 15.7442 7.64284C15.5847 7.27388 15.4116 6.9277 15.243 6.55418C14.6461 5.23321 16.4049 4.85058 17.8311 4.18098C20.3828 2.97844 20.3418 2.99211 21.4855 5.69327C23.1396 9.59242 22.9938 7.76128 27.1722 7.61551L29.0677 7.54263C29.2864 7.54263 29.332 7.57452 29.5416 7.57907C29.7466 7.58363 29.815 7.56996 30.0155 7.58818C30.6352 7.64284 31.2458 7.6975 31.8655 7.78405C33.2871 7.97992 33.4466 7.20556 33.8886 6.0759C34.0253 5.72516 34.1164 5.4473 34.244 5.11477C35.4971 1.91711 34.9594 2.54116 38.8872 3.87579C41.4206 4.73215 40.5321 5.34253 39.8031 7.43787C39.2927 8.90916 38.6047 9.56964 39.7666 10.6492C40.2132 11.0637 41.0971 10.9635 41.4981 10.5308C41.9082 10.0935 42.9744 6.9778 43.1567 6.41753C43.5668 5.17399 43.3937 3.55238 42.1497 2.39995C41.2429 1.56181 38.7641 0.864886 37.5475 0.391158C35.971 -0.223777 34.326 -0.214667 33.0456 1.15641Z" fill="#FF3100"/>
<path d="M34.7858 39.4327C35.4511 39.0638 36.2895 39.3006 36.6632 39.9611C37.0322 40.6262 36.7953 41.4643 36.1346 41.8378C35.0091 42.471 33.8016 42.9584 32.544 43.2863C31.2909 43.6143 30.0014 43.7828 28.7164 43.7828C24.5426 43.7828 20.7606 42.0929 18.0267 39.3599C15.2927 36.6268 13.5977 32.8461 13.5977 28.6736C13.5977 24.5012 15.2927 20.725 18.0267 17.9874C20.7606 15.2544 24.5426 13.5645 28.7164 13.5645C30.047 13.5645 31.3684 13.7421 32.6488 14.0883C33.9246 14.4299 35.1595 14.9446 36.3123 15.6142C36.973 15.9969 37.1963 16.8396 36.8135 17.4955C36.4353 18.156 35.5924 18.3792 34.9316 17.9965C33.993 17.4499 32.9814 17.0309 31.938 16.7485C30.8945 16.466 29.81 16.3248 28.7164 16.3248C25.3036 16.3248 22.2142 17.705 19.9769 19.9416C17.7442 22.1736 16.359 25.2619 16.359 28.6736C16.359 32.0854 17.7442 35.1737 19.9769 37.4103C22.2142 39.6423 25.3036 41.027 28.7164 41.027C29.7872 41.027 30.8444 40.8904 31.8559 40.6262C32.8675 40.3574 33.8517 39.9611 34.7858 39.4327Z" fill="#FF3100"/>
</svg>
