<svg width="20" height="20" viewBox="0 0 20 20" fill="none" xmlns="http://www.w3.org/2000/svg">
<path fill-rule="evenodd" clip-rule="evenodd" d="M18.4436 14.1741V16.8231C18.4456 17.3203 18.2379 17.7954 17.8715 18.1315C17.5051 18.4677 17.0139 18.6338 16.5187 18.589C13.8016 18.2938 11.1917 17.3653 8.8986 15.8783C6.76517 14.5226 4.9564 12.7138 3.60073 10.5804C2.10848 8.27689 1.17982 5.65426 0.889986 2.92498C0.845372 2.43128 1.01031 1.94157 1.34451 1.57545C1.67871 1.20934 2.1514 1.00055 2.64711 1.00009H5.29605C6.18244 0.991363 6.93795 1.6411 7.06201 2.51881C7.17381 3.36653 7.38116 4.19888 7.68009 4.99998C7.92268 5.64533 7.76752 6.37284 7.28275 6.86307L6.16137 7.98445C7.41834 10.195 9.24866 12.0254 11.4592 13.2823L12.5806 12.1609C13.0708 11.6762 13.7984 11.521 14.4437 11.7636C15.2448 12.0625 16.0772 12.2699 16.9249 12.3817C17.8128 12.5069 18.4658 13.2777 18.4436 14.1741Z" stroke="#283346" stroke-width="1.5" stroke-linecap="round" stroke-linejoin="round"/>
</svg>
