<svg width="44" height="56" viewBox="0 0 44 56" fill="none" xmlns="http://www.w3.org/2000/svg">
<path fill-rule="evenodd" clip-rule="evenodd" d="M11.5284 53.9759C12.5961 52.8265 12.5203 51.5934 13.2185 50.3719C14.2805 50.5431 14.9048 50.4595 15.7022 50.5178C16.8459 50.6053 18.8044 50.3817 19.8839 50.1269C20.3545 50.6423 20.7182 51.9823 21.1014 52.6611C21.891 54.0596 23.5443 54.7597 24.9991 54.4622C25.4503 54.3688 25.6623 54.2579 26.096 54.0557C27.088 53.5967 29.6261 52.6592 30.3166 51.9143C31.2463 50.9146 31.6488 49.7029 31.4018 48.5884C31.2618 47.9505 31.0926 47.7054 30.832 47.0908C30.6589 46.6824 30.3691 45.8635 30.0851 45.5504C30.4702 45.1361 30.8106 44.9436 31.1626 44.5993C32.104 43.6794 33.1037 42.6524 33.9283 41.6158C34.2006 41.2754 34.4243 40.8806 34.7569 40.5227C35.3442 40.8592 37.2406 41.4874 37.8299 41.5847C38.8938 41.7597 40.1736 41.3065 41.0702 40.3399C41.7393 39.6203 42.5133 37.1521 42.8848 36.0766C43.2057 35.1469 43.3088 34.9427 43.2427 33.9896C43.1804 33.0794 42.6495 32.2431 41.9143 31.5604C41.4241 31.1053 39.3314 30.3195 38.5729 30.1153L38.6896 28.4426C38.6896 26.7564 38.7168 25.004 38.3258 23.3488C39.2069 23.0026 41.0741 22.176 41.6498 21.5556C43.7464 19.2994 42.2449 17.3331 41.2627 15.0478C41.1168 14.7055 40.9574 14.3632 40.7959 14.0014C40.3544 13.0056 39.2497 12.1304 38.2131 11.9164C37.0811 11.6811 36.2292 12.0681 35.2003 12.5057C34.9358 12.6186 34.681 12.7294 34.4535 12.8345C34.224 12.9414 33.907 13.0698 33.7086 13.202C33.2282 12.7566 32.6544 11.93 31.9698 11.294L29.7759 9.353C29.4394 9.06709 29.0446 8.86869 28.7353 8.58279C29.0018 7.59086 29.595 6.57172 29.772 5.56035C29.914 4.74152 29.6903 3.3217 28.8695 2.55928C27.9379 1.69377 27.4789 1.60042 26.3411 1.17253C25.3608 0.802992 24.2075 0.272024 23.2156 0.0678083C22.2159 -0.140303 20.8933 0.122267 20.1134 0.96248C19.0865 2.06721 19.0592 2.61762 18.5672 3.90129C18.4621 4.17358 18.3551 4.43616 18.2773 4.72206C17.7347 4.57619 17.1726 4.62287 16.6047 4.5723C15.4513 4.4731 12.5047 4.62481 11.5109 4.97101C11.2658 4.27083 10.305 2.19169 9.87711 1.79492C9.02911 1.00721 8.43978 0.639615 7.30393 0.559872C6.61347 0.51125 5.91913 0.760209 5.2987 1.0539L2.31514 2.42119C1.08399 2.9755 0.162091 4.10551 0.0181623 5.44752C-0.086864 6.42972 0.278794 7.26995 0.696957 8.15295C0.975086 8.73838 1.64219 10.5394 1.96505 10.837L2.27822 11.1287C3.15733 11.9456 4.76191 10.8175 4.27372 9.53776C3.97031 8.73839 2.70219 6.43362 2.67302 5.90654C2.61467 4.87766 4.21148 4.53729 5.35511 3.99271C7.89326 2.78489 7.60151 2.96771 8.78209 5.4767C9.26833 6.51141 9.65537 8.13739 11.0577 7.81453L13.6211 7.3633C14.6345 7.19798 16.4724 7.23105 17.5149 7.34191C19.347 7.53835 19.9636 7.9643 20.6074 6.10104C20.7941 5.55645 21.5935 3.25364 21.8074 3.02219C22.4473 2.33368 23.6357 3.07081 24.4486 3.35866L26.4481 4.08606C27.3466 4.43421 27.1444 5.15968 26.8468 5.9221L25.8529 8.63919C25.3978 10.1135 26.8818 10.5316 27.8212 11.2551C29.1418 12.2704 29.9081 12.9881 31.0168 14.2134C31.2793 14.5013 31.4816 14.7599 31.7033 15.0478C32.2518 15.7616 32.7944 16.5298 33.8136 16.0903C34.082 15.9755 34.2473 15.8802 34.5099 15.7674C34.7861 15.6507 34.9961 15.5593 35.2567 15.4368C35.6768 15.2384 36.9041 14.5693 37.3476 14.5149C37.5109 14.4954 37.9758 14.6296 38.1139 14.7599C38.2714 14.9039 39.0883 16.7905 39.2555 17.1444C39.4637 17.5821 39.5979 17.9049 39.806 18.3367C40.5023 19.7779 39.0688 20.0444 37.7715 20.6298C37.4214 20.7893 37.155 20.9079 36.8282 21.0616C34.4146 22.1974 35.8441 22.5475 36.0016 26.8225C36.0328 27.6841 36.0094 28.5574 35.918 29.4054C35.6263 32.1342 35.5757 31.9241 38.4231 32.9063C39.0299 33.1144 40.265 33.4042 40.5081 34.0383C40.6598 34.437 40.4653 34.7657 40.3291 35.1586C40.1969 35.5378 40.053 35.8782 39.9032 36.2866C39.4034 37.652 39.1913 39.3674 37.8299 38.852C37.4292 38.7003 37.1414 38.5992 36.7543 38.4494C36.3712 38.2996 36.0308 38.183 35.6768 38.0468C35.0078 37.7901 34.2123 37.3505 33.4907 37.7298C33.0006 37.9846 31.8881 39.9353 30.9779 40.9156C30.0987 41.8608 29.0348 42.9014 28.0935 43.6327C27.6889 43.9458 27.4225 44.0489 27.2007 44.4943C26.7612 45.3773 27.6403 46.5734 28.144 47.7463C28.2957 48.1002 28.463 48.4348 28.6245 48.7907C29.2002 50.0588 27.5081 50.4283 26.1388 51.0741C23.6921 52.2274 23.729 52.2157 22.6321 49.6192C21.045 45.8733 21.185 47.6315 17.1687 47.7735L15.3502 47.8415C15.1421 47.8415 15.0973 47.8143 14.8951 47.8085C14.6967 47.8046 14.6344 47.8182 14.4399 47.8007C13.8467 47.7463 13.2574 47.6937 12.6623 47.612C11.2988 47.4214 11.1452 48.1664 10.7212 49.2516C10.589 49.5901 10.5034 49.8565 10.3789 50.1755C9.17694 53.2466 9.69427 52.6456 5.92107 51.3677C3.48989 50.5431 4.33985 49.9557 5.04197 47.9446C5.5321 46.5326 6.19336 45.8947 5.07696 44.858C4.64713 44.4593 3.79719 44.5565 3.4121 44.9708C3.01922 45.3948 1.99811 48.3842 1.81917 48.9229C1.42629 50.1171 1.59552 51.675 2.78777 52.7817C3.65717 53.5908 6.03971 54.2599 7.20668 54.7131C8.72179 55.3043 10.3031 55.2965 11.5284 53.9759Z" fill="#FF3100"/>
<path d="M9.85897 17.2085C9.22103 17.5663 8.41583 17.3388 8.05796 16.7009C7.70009 16.0629 7.92764 15.2577 8.56558 14.8998C9.64503 14.2911 10.8042 13.8243 12.0101 13.5072C13.2159 13.1922 14.451 13.0288 15.688 13.0288C19.6965 13.0288 23.3258 14.6548 25.9515 17.2804C28.5791 19.9081 30.2031 23.5354 30.2031 27.5439C30.2031 31.5525 28.5791 35.1817 25.9515 37.8074C23.3258 40.435 19.6965 42.0591 15.688 42.0591C14.4102 42.0591 13.1401 41.8899 11.9109 41.5573C10.6856 41.2266 9.50109 40.7346 8.39248 40.0889C7.76037 39.7232 7.5445 38.9141 7.91015 38.282C8.2758 37.6499 9.08491 37.434 9.71701 37.7996C10.6214 38.3267 11.59 38.7293 12.5955 38.9997C13.5952 39.27 14.6358 39.4081 15.688 39.4081C18.9652 39.4081 21.9313 38.0817 24.0785 35.9344C26.2257 33.7872 27.5541 30.8212 27.5541 27.5439C27.5541 24.2686 26.2257 21.3026 24.0785 19.1554C21.9313 17.0082 18.9652 15.6798 15.688 15.6798C14.6572 15.6798 13.6439 15.8101 12.6733 16.0649C11.7028 16.3196 10.7556 16.7028 9.85897 17.2085Z" fill="#FF3100"/>
</svg>
