<svg width="38" height="22" viewBox="0 0 38 22" fill="none" xmlns="http://www.w3.org/2000/svg">
<path fill-rule="evenodd" clip-rule="evenodd" d="M14.474 10.3074C13.0247 10.8285 12.0586 8.90693 11.472 7.92988L9.85021 5.35696C8.40097 2.75148 9.47065 1.61158 5.29546 1.51388C1.08576 1.44874 0.292131 2.06754 1.53434 4.99871C2.5005 7.1808 3.25962 8.58125 4.53633 10.3074C5.50249 11.4798 6.22711 12.5546 7.19327 13.6619C9.33262 16.1046 10.5403 17.9284 13.6803 19.394C15.5782 20.2733 16.1993 20.6967 18.7527 20.6316C21.5476 20.5339 22.1342 20.7293 22.2033 17.9935C22.2378 15.9092 23.5145 15.1275 25.1017 17.5376C25.5158 18.1238 26.3784 18.5798 27.4481 19.6545C27.7242 19.9151 28.0347 20.1105 28.3798 20.3385C29.6565 21.2178 32.2099 21.0224 33.9352 20.8596C38.2139 20.2733 36.9372 18.1238 36.3851 17.7656C36.3161 17.3422 36.4886 17.7981 36.3161 17.5376C36.2126 17.3747 36.1435 17.3422 36.0745 17.3096C33.107 11.089 27.5171 16.4954 34.9013 6.6597C35.5224 5.84549 36.3161 4.83587 36.7301 3.69597C37.4548 1.67672 35.6605 1.87213 33.9697 1.93727C32.6585 2.0024 30.036 1.80699 29.0009 1.96984C28.3453 2.06754 28.2762 2.65378 27.9657 3.30515C27.1721 4.901 26.2404 6.62713 25.2397 7.99501C24.2736 9.26518 23.825 10.7308 22.7208 10.3074C21.3406 9.75371 23.3764 2.16525 21.3751 1.31847C20.2709 0.829938 17.821 1.05792 16.4063 1.02535C15.0951 0.992781 12.5417 1.35103 12.6797 2.62121C13.6113 3.40285 14.405 2.5235 14.7845 4.08679L14.474 10.3074Z" stroke="#FF3100" stroke-width="2"/>
</svg>
